<svg xmlns="http://www.w3.org/2000/svg" width="360" height="360" viewBox="0 0 360 360">
<g>
<path d="M 344.47 360.00 L 1.79 360.00 C3.80,360.00 4.81,354.58 7.50,329.50 C10.02,305.92 11.93,298.37 19.66,281.50 C22.69,274.90 25.51,268.83 25.93,268.00 C26.35,267.17 28.45,265.52 30.60,264.33 C32.74,263.13 35.04,261.67 35.71,261.08 C36.37,260.48 37.57,260.00 38.37,260.00 C40.76,260.00 69.38,249.64 86.00,242.77 C103.92,235.35 111.06,231.84 113.02,229.47 C114.52,227.66 124.34,223.00 126.65,223.00 C127.78,223.00 127.73,223.48 126.40,225.51 C125.11,227.48 124.98,228.59 125.82,230.76 C126.40,232.27 127.15,234.88 127.48,236.57 C128.93,243.99 140.49,253.78 152.31,257.60 C159.21,259.83 162.25,260.24 171.63,260.21 C183.78,260.17 190.27,258.88 202.69,254.01 C215.88,248.85 221.89,243.24 225.84,232.44 C228.00,226.52 227.44,224.10 222.75,219.25 C221.02,217.46 219.94,216.00 220.35,216.00 C221.88,216.00 227.00,219.09 227.00,220.01 C227.00,220.53 228.17,221.26 229.60,221.61 C231.03,221.97 234.29,223.87 236.85,225.83 C242.14,229.89 261.06,238.69 271.50,241.95 C275.35,243.15 280.75,245.04 283.50,246.15 C286.25,247.26 293.00,249.94 298.50,252.12 C313.38,258.00 315.99,259.21 315.50,259.99 C315.26,260.39 316.23,261.24 317.66,261.89 C319.09,262.54 319.98,263.35 319.65,263.69 C319.31,264.02 320.11,265.24 321.43,266.40 C325.96,270.38 330.16,278.87 333.23,290.25 C334.38,294.51 335.70,298.00 336.16,298.00 C337.64,298.00 337.06,302.77 334.93,308.18 L 332.86 313.44 L 334.93 311.56 C337.50,309.24 338.20,309.88 338.98,315.27 C339.34,317.80 340.07,319.40 340.79,319.25 C342.03,318.99 342.61,329.06 341.42,330.24 C340.53,331.14 335.03,343.00 335.51,343.00 C335.74,343.00 337.09,341.31 338.52,339.25 C340.88,335.83 341.05,335.74 340.44,338.25 C340.08,339.76 340.07,341.73 340.41,342.63 C340.99,344.15 341.18,344.14 342.88,342.60 C344.64,341.02 344.76,341.11 345.30,344.49 C345.67,346.75 345.18,350.07 343.94,353.67 C342.87,356.78 342.00,359.47 342.00,359.66 C342.00,359.85 343.11,360.00 344.47,360.00 ZM 127.96 124.50 C127.28,130.55 126.46,137.73 126.11,140.45 L 125.49 145.39 L 123.74 142.73 C122.78,141.27 122.00,138.77 122.00,137.19 C122.00,135.58 121.12,133.51 120.00,132.50 C118.34,131.00 117.56,130.88 115.50,131.82 C114.12,132.45 113.00,133.68 113.00,134.56 C113.00,137.37 110.58,135.52 107.93,130.67 C106.52,128.08 105.10,126.23 104.78,126.55 C104.46,126.87 103.89,125.29 103.50,123.03 C103.04,120.29 102.01,118.40 100.41,117.35 C98.73,116.25 97.99,114.82 97.96,112.63 C97.95,110.91 97.29,108.38 96.50,107.00 C94.00,102.62 94.62,96.76 98.03,92.46 C100.69,89.12 100.99,88.11 100.44,84.43 C99.56,78.57 102.85,71.00 106.27,71.00 C107.58,71.00 109.71,69.88 111.00,68.50 C112.29,67.12 113.95,66.00 114.67,66.00 C115.64,66.00 116.00,64.25 116.00,59.62 C116.00,52.23 117.33,50.42 122.04,51.36 C124.17,51.78 125.24,51.54 125.62,50.54 C126.31,48.76 135.28,44.00 137.96,44.00 C143.92,44.00 153.79,37.50 152.59,34.38 C152.22,33.41 152.90,33.00 154.88,33.00 C156.43,33.00 159.14,32.50 160.90,31.89 C163.54,30.97 164.41,31.06 165.92,32.43 C168.37,34.65 174.57,35.60 176.45,34.04 C177.25,33.37 178.33,33.09 178.85,33.41 C179.37,33.73 184.42,34.90 190.09,36.02 C205.40,39.03 217.21,43.62 223.56,49.00 C226.47,51.47 229.97,54.27 231.32,55.22 C234.38,57.35 236.61,63.70 238.59,75.93 C240.01,84.70 241.22,88.36 246.04,98.42 C247.86,102.23 247.81,104.62 245.93,103.46 C245.42,103.14 245.01,103.92 245.02,105.19 C245.03,107.05 245.22,107.21 246.00,106.00 C246.86,104.67 246.97,104.67 247.00,106.00 C247.03,107.33 247.15,107.33 248.11,106.00 C249.01,104.75 249.09,104.81 248.59,106.33 C248.27,107.34 247.96,109.36 247.90,110.83 L 247.80 113.50 L 247.00 111.00 C246.56,109.62 246.15,109.03 246.10,109.69 C246.04,110.34 245.10,110.81 244.01,110.73 C242.59,110.62 241.83,109.62 241.39,107.26 C240.90,104.65 240.49,104.18 239.44,105.05 C238.47,105.85 238.37,106.84 239.05,108.64 C240.25,111.79 240.24,112.27 239.00,111.50 C238.45,111.16 238.00,111.37 238.00,111.97 C238.00,112.57 238.58,113.28 239.28,113.56 C240.04,113.85 240.65,116.06 240.78,118.97 C240.96,123.18 240.66,124.08 238.70,125.20 C232.65,128.62 230.31,130.50 229.23,132.79 C228.58,134.16 228.29,135.67 228.59,136.14 C228.88,136.61 228.69,137.00 228.17,137.00 C227.65,137.00 226.69,133.96 226.04,130.25 C223.83,117.62 220.86,105.51 219.43,103.29 C217.72,100.64 217.53,94.32 219.14,93.79 C221.05,93.15 219.17,84.08 216.60,81.51 C214.80,79.71 213.39,79.31 209.43,79.49 C206.72,79.61 202.70,79.20 200.50,78.57 C198.18,77.90 190.62,77.50 182.50,77.60 C174.80,77.70 168.27,77.41 167.99,76.96 C167.70,76.52 165.56,75.96 163.21,75.72 C159.56,75.36 158.69,75.65 157.12,77.80 C155.76,79.68 154.44,80.29 151.91,80.22 C146.91,80.07 142.00,85.54 142.00,91.25 C142.00,92.63 140.56,95.01 138.55,96.96 C136.65,98.80 134.79,101.68 134.42,103.36 C134.05,105.05 132.72,108.02 131.46,109.96 C129.73,112.64 128.88,116.18 127.96,124.50 ZM 186.21 207.99 C179.31,209.77 165.37,208.57 157.77,205.52 C153.56,203.84 147.45,199.16 140.99,192.68 C137.52,189.21 137.09,189.03 136.17,190.67 C135.28,192.26 135.08,192.12 134.51,189.49 C133.38,184.28 132.02,181.78 130.60,182.32 C127.88,183.37 126.00,175.74 128.04,171.93 C129.52,169.15 130.44,169.52 132.59,173.75 C133.64,175.81 135.20,178.18 136.05,179.00 C136.90,179.82 138.65,182.00 139.93,183.84 C141.70,186.37 142.48,186.86 143.12,185.84 C143.59,185.10 143.98,184.95 144.00,185.50 C144.02,186.05 144.47,185.82 145.00,185.00 C145.65,184.00 145.97,183.92 145.98,184.75 C145.99,185.44 146.66,186.00 147.47,186.00 C148.29,186.00 149.59,187.24 150.38,188.75 C152.30,192.44 156.55,196.00 159.04,196.00 C160.15,196.00 161.32,196.67 161.64,197.49 C161.95,198.32 162.66,198.71 163.22,198.37 C163.77,198.02 164.51,198.18 164.86,198.71 C165.21,199.25 166.92,199.96 168.65,200.30 C171.14,200.78 171.89,200.54 172.26,199.11 C172.83,196.93 175.81,196.99 179.25,199.25 C182.25,201.21 185.70,200.53 186.56,197.81 C187.03,196.32 187.77,195.98 189.53,196.42 C190.82,196.74 192.14,196.58 192.47,196.05 C192.80,195.52 193.67,195.32 194.40,195.60 C196.12,196.26 199.00,193.40 199.00,191.04 C199.00,188.98 201.25,187.78 203.50,188.64 C204.32,188.95 205.00,189.87 205.00,190.68 C205.00,193.21 207.52,195.05 209.11,193.69 C209.86,193.03 209.17,193.96 207.56,195.75 C205.94,197.54 204.08,199.00 203.42,199.00 C202.76,199.00 201.99,199.57 201.72,200.28 C201.09,201.92 191.77,206.55 186.21,207.99 ZM 159.57 118.57 C157.85,120.29 156.45,120.27 152.50,118.46 C148.89,116.81 137.67,116.57 134.85,118.08 C133.74,118.68 132.63,118.96 132.39,118.72 C131.40,117.73 133.99,113.24 136.49,111.60 C139.00,109.95 139.37,109.95 142.69,111.52 C144.83,112.54 147.64,113.02 149.86,112.74 C152.21,112.45 154.83,112.95 157.25,114.16 C161.44,116.26 161.59,116.55 159.57,118.57 ZM 205.47 116.08 C201.76,116.60 197.78,117.21 196.61,117.42 C190.97,118.45 189.79,114.68 194.74,111.43 C196.74,110.12 198.54,109.92 203.23,110.45 C208.31,111.02 209.39,110.85 210.54,109.31 C211.82,107.58 211.99,107.60 214.16,109.75 L 216.44 112.00 L 213.72 112.00 C212.23,112.00 211.00,112.45 211.00,113.00 C211.00,113.55 211.52,114.00 212.17,114.00 C215.40,114.00 211.42,115.23 205.47,116.08 ZM 156.65 163.50 C152.58,165.20 148.21,165.42 146.00,164.02 C143.32,162.32 147.28,159.62 152.74,159.42 C155.36,159.32 159.61,158.92 162.20,158.52 C166.76,157.81 173.00,159.38 173.00,161.24 C173.00,161.66 170.13,162.00 166.62,162.00 C163.11,162.00 158.63,162.68 156.65,163.50 ZM 201.02 167.49 C197.64,169.24 196.09,169.35 194.00,168.00 C192.78,167.21 192.91,167.03 194.69,167.02 C195.90,167.01 197.11,166.63 197.39,166.18 C197.93,165.30 194.48,161.93 193.24,162.12 C192.83,162.18 189.65,162.18 186.17,162.12 C181.57,162.03 179.95,161.66 180.27,160.75 C180.52,160.06 181.56,159.58 182.59,159.68 C183.63,159.78 184.77,159.38 185.13,158.79 C185.59,158.05 186.76,158.07 189.04,158.86 C190.83,159.49 193.92,160.01 195.90,160.03 C202.53,160.09 205.88,164.98 201.02,167.49 ZM 155.24 127.46 C152.08,128.67 148.81,127.99 148.29,126.00 C147.66,123.58 146.26,123.46 143.89,125.60 C142.91,126.48 141.56,127.02 140.88,126.79 C138.44,125.98 146.25,121.68 151.00,121.23 C155.65,120.78 155.75,120.83 156.19,123.85 C156.49,125.89 156.17,127.10 155.24,127.46 ZM 204.00 124.72 C202.38,126.03 197.75,126.42 196.67,125.33 C196.30,124.97 196.00,123.65 196.00,122.41 C196.00,120.73 196.75,119.99 198.98,119.50 C204.75,118.24 207.92,121.53 204.00,124.72 ZM 233.20 73.25 C234.66,77.28 236.00,76.60 236.00,71.83 C236.00,69.54 235.72,67.95 235.37,68.30 C235.02,68.65 233.83,68.44 232.72,67.85 C230.96,66.91 230.79,67.01 231.45,68.63 C231.87,69.66 232.65,71.74 233.20,73.25 ZM 226.43 171.43 C224.42,173.44 223.62,173.43 224.39,171.42 C224.73,170.55 225.00,168.31 225.00,166.45 C225.00,163.85 225.35,163.20 226.50,163.64 C228.48,164.40 228.43,169.43 226.43,171.43 ZM 0.00 180.00 C0.00,352.12 0.08,360.00 1.79,360.00 L 0.00 360.00 ZM 355.50 360.00 L 344.47 360.00 C346.40,360.00 347.15,359.29 347.88,356.75 C348.40,354.96 348.86,354.29 348.91,355.25 C348.96,356.21 349.45,357.00 350.00,357.00 C350.55,357.00 351.00,357.67 351.00,358.50 C351.00,359.61 352.17,360.00 355.50,360.00 ZM 158.44 168.10 C157.62,169.42 155.64,169.20 153.44,167.53 C151.54,166.10 151.55,166.06 153.67,166.03 C156.68,165.99 159.10,167.04 158.44,168.10 ZM 212.00 123.95 C213.25,124.80 213.17,124.97 211.49,124.98 C210.39,124.99 208.90,124.07 208.19,122.94 C207.04,121.08 207.09,120.98 208.70,121.91 C209.69,122.47 211.18,123.39 212.00,123.95 ZM 221.00 184.44 C221.00,185.30 220.55,186.00 220.00,186.00 C219.45,186.00 219.00,185.58 219.00,185.06 C219.00,184.54 219.45,183.84 220.00,183.50 C220.55,183.16 221.00,183.58 221.00,184.44 Z" fill="rgb(16,16,16)"/>
<path d="M 127.96 124.50 C128.88,116.18 129.73,112.64 131.46,109.96 C132.72,108.02 134.05,105.05 134.42,103.36 C134.79,101.68 136.65,98.80 138.55,96.96 C140.56,95.01 142.00,92.63 142.00,91.25 C142.00,85.54 146.91,80.07 151.91,80.22 C154.44,80.29 155.76,79.68 157.12,77.80 C158.69,75.65 159.56,75.36 163.21,75.72 C165.56,75.96 167.70,76.52 167.99,76.96 C168.27,77.41 174.80,77.70 182.50,77.60 C190.62,77.50 198.18,77.90 200.50,78.57 C202.70,79.20 206.72,79.61 209.43,79.49 C213.39,79.31 214.80,79.71 216.60,81.51 C219.17,84.08 221.05,93.15 219.14,93.79 C217.53,94.32 217.72,100.64 219.43,103.29 C220.86,105.51 223.83,117.62 226.04,130.25 C226.69,133.96 227.65,137.00 228.17,137.00 C228.69,137.00 228.88,136.61 228.59,136.14 C228.29,135.67 228.58,134.16 229.23,132.79 C230.31,130.50 232.65,128.62 238.70,125.20 C240.66,124.08 240.96,123.18 240.78,118.97 C240.65,116.06 240.04,113.85 239.28,113.56 C238.58,113.28 238.00,112.57 238.00,111.97 C238.00,111.37 238.45,111.16 239.00,111.50 C240.24,112.27 240.25,111.79 239.05,108.64 C238.37,106.84 238.47,105.85 239.44,105.05 C240.49,104.18 240.90,104.65 241.39,107.26 C241.83,109.62 242.59,110.62 244.01,110.73 C245.10,110.81 246.04,110.34 246.10,109.69 C246.15,109.03 246.56,109.62 247.00,111.00 L 247.80 113.50 L 247.90 110.83 C247.96,109.36 248.27,107.34 248.59,106.33 C249.09,104.81 249.01,104.75 248.11,106.00 C247.15,107.33 247.03,107.33 247.00,106.00 C246.97,104.67 246.86,104.67 246.00,106.00 C245.22,107.21 245.03,107.05 245.02,105.19 C245.01,103.92 245.42,103.14 245.93,103.46 C247.81,104.62 247.86,102.23 246.04,98.42 C241.22,88.36 240.01,84.70 238.59,75.93 C237.31,68.01 235.92,62.55 234.27,59.12 C235.57,61.79 236.65,65.57 237.74,70.99 C239.44,79.42 241.29,83.77 244.17,86.05 C246.47,87.88 247.58,91.93 250.66,109.75 C251.38,113.96 250.35,118.00 248.54,118.00 C246.57,118.00 244.00,121.93 243.98,124.97 C243.97,126.77 243.72,127.11 243.11,126.14 C242.54,125.24 242.03,125.14 241.59,125.85 C241.23,126.43 240.28,126.66 239.47,126.35 C237.61,125.64 237.53,127.63 239.37,128.70 C241.05,129.68 240.96,134.20 239.24,135.30 C237.12,136.66 235.79,134.94 236.20,131.38 C236.66,127.44 236.04,127.17 233.40,130.17 C232.36,131.37 232.06,132.01 232.75,131.61 C235.18,130.19 233.36,143.04 230.92,144.55 C229.13,145.66 227.00,142.85 227.00,139.38 C227.00,134.03 223.97,117.89 222.53,115.59 C221.81,114.44 220.94,111.86 220.59,109.86 C220.09,107.04 219.40,106.12 217.51,105.76 C216.16,105.50 215.30,105.67 215.59,106.14 C215.88,106.62 215.56,107.00 214.87,107.00 C214.19,107.00 214.84,108.26 216.31,109.80 C220.65,114.33 219.93,116.50 214.25,116.04 C211.33,115.80 211.15,119.45 214.00,121.23 C217.52,123.43 216.38,125.68 210.38,128.43 C204.68,131.04 199.00,131.82 199.00,130.00 C199.00,129.45 199.45,129.00 200.00,129.00 C200.55,129.00 201.00,128.62 201.00,128.16 C201.00,127.70 199.41,127.26 197.46,127.19 C195.39,127.11 194.17,127.46 194.52,128.03 C194.85,128.56 194.64,129.00 194.06,129.00 C193.48,129.00 193.00,128.55 193.00,128.00 C193.00,127.45 191.76,127.04 190.25,127.08 C188.74,127.12 188.06,127.38 188.75,127.66 C190.88,128.52 190.13,131.00 187.43,132.02 C187.29,132.08 187.15,132.13 187.02,132.18 C185.62,132.72 184.91,132.99 184.38,132.79 C183.78,132.57 183.41,131.75 182.53,130.05 C179.94,125.06 180.60,122.24 185.62,116.66 C190.90,110.79 194.39,109.00 200.60,109.00 C204.39,109.00 205.04,108.68 205.58,106.56 C206.41,103.24 205.58,102.23 201.05,101.01 C198.93,100.44 196.15,99.13 194.88,98.10 C191.78,95.59 193.52,93.45 199.37,92.57 C204.91,91.74 208.57,93.15 209.39,96.43 C209.75,97.85 210.75,99.00 211.64,99.00 C212.84,99.00 213.06,98.45 212.51,96.75 C212.12,95.51 211.56,92.93 211.28,91.00 C210.99,89.07 210.35,86.99 209.85,86.36 C209.35,85.74 204.53,84.00 199.14,82.49 C189.51,79.80 189.26,79.78 185.61,81.52 C182.59,82.95 181.19,83.09 178.19,82.24 C174.62,81.24 168.48,81.40 155.20,82.86 C154.48,82.94 153.22,84.62 152.40,86.59 C151.02,89.89 151.04,90.40 152.70,92.73 C153.69,94.14 154.95,95.92 155.50,96.69 C156.43,98.01 154.03,100.74 147.19,106.15 C146.48,106.72 146.03,107.93 146.20,108.84 C146.44,110.11 147.83,110.56 152.01,110.77 C158.68,111.10 161.09,112.24 166.81,117.77 C172.80,123.56 173.49,127.06 170.48,136.28 C168.23,143.14 166.12,146.00 163.31,146.00 C161.64,146.00 161.65,145.07 163.34,143.08 C165.33,140.72 167.30,135.22 166.71,133.68 C166.37,132.80 165.12,132.47 163.21,132.76 C161.58,133.00 159.94,132.71 159.58,132.12 C159.12,131.39 157.62,131.57 154.81,132.69 C151.38,134.06 149.98,134.14 146.34,133.17 C143.94,132.53 140.64,132.00 139.02,132.00 C137.09,132.00 135.70,131.31 135.00,130.00 C132.45,125.24 131.68,128.67 131.88,143.85 C131.97,150.17 134.90,155.69 138.67,156.63 C140.05,156.98 142.98,156.67 145.17,155.94 C148.29,154.92 149.59,154.89 151.07,155.81 C154.61,158.02 162.00,157.06 162.00,154.39 C162.00,152.24 171.62,152.64 176.86,155.02 C181.86,157.29 183.59,157.47 184.60,155.84 C185.09,155.04 184.62,154.87 183.06,155.27 C180.90,155.84 180.88,155.79 182.56,153.93 C185.24,150.97 192.46,151.53 190.00,154.50 C188.43,156.40 196.04,158.32 199.65,156.94 C205.15,154.84 213.48,159.44 212.31,163.93 C212.02,165.03 212.76,166.46 214.23,167.61 C217.10,169.87 217.35,174.58 214.75,177.22 C212.47,179.54 212.39,181.75 214.66,179.87 C216.18,178.62 216.27,178.87 215.76,182.75 C215.36,185.71 215.52,186.79 216.29,186.32 C216.90,185.95 216.45,186.96 215.30,188.57 C212.56,192.41 201.75,202.03 197.69,204.24 C193.41,206.57 191.25,209.37 189.93,214.27 C188.91,218.04 189.01,218.50 191.16,220.14 C193.07,221.59 193.29,222.25 192.39,223.71 C191.78,224.69 190.45,225.50 189.43,225.50 C187.98,225.50 187.33,224.26 186.42,219.71 C185.73,216.27 184.50,213.33 183.38,212.49 C180.68,210.44 168.14,210.46 167.35,212.52 C166.52,214.69 168.85,219.74 171.75,222.02 C175.78,225.19 174.10,227.03 167.80,226.33 C161.79,225.66 158.36,223.11 154.37,216.34 C151.50,211.47 150.14,210.75 146.89,212.36 C144.93,213.33 144.36,214.62 143.73,219.52 C143.30,222.81 142.28,229.10 141.47,233.50 C139.66,243.26 139.59,249.12 141.25,251.16 C143.20,253.56 148.56,256.42 154.58,258.31 C153.86,258.09 153.11,257.86 152.31,257.60 C140.49,253.78 128.93,243.99 127.48,236.57 C127.15,234.88 126.40,232.27 125.82,230.76 C124.98,228.59 125.11,227.48 126.40,225.51 C127.73,223.48 127.78,223.00 126.65,223.00 C124.34,223.00 114.52,227.66 113.02,229.47 C111.06,231.84 103.92,235.35 86.00,242.77 C71.94,248.58 49.28,256.90 41.19,259.31 C42.97,258.71 45.17,257.58 46.60,256.49 C48.40,255.12 50.57,254.00 51.43,254.00 C52.29,254.00 53.00,253.55 53.00,253.00 C53.00,252.45 54.01,251.99 55.25,251.99 C56.49,251.98 58.62,251.34 60.00,250.56 C65.21,247.62 71.24,245.03 71.92,245.45 C72.30,245.69 73.44,244.78 74.45,243.44 C75.46,242.10 77.14,241.00 78.20,241.00 C79.25,241.00 79.84,240.55 79.50,240.00 C79.16,239.45 79.47,238.99 80.19,238.97 C80.91,238.95 82.43,238.16 83.57,237.20 C85.72,235.40 93.00,224.56 93.00,223.15 C93.00,222.71 94.12,221.29 95.50,220.00 C96.88,218.71 98.00,217.08 98.00,216.39 C98.00,215.69 99.31,213.69 100.91,211.94 C102.81,209.86 103.99,207.32 104.30,204.63 C105.16,197.25 106.79,192.82 109.81,189.63 C111.44,187.91 113.24,184.93 113.82,183.00 C117.43,170.94 117.46,170.43 115.46,157.48 C114.95,154.23 115.22,153.11 116.83,151.66 C118.61,150.04 118.68,149.57 117.46,147.18 C116.71,145.70 115.89,143.76 115.63,142.86 C115.36,141.96 112.22,139.33 108.64,137.01 C102.48,133.03 100.00,129.69 100.00,125.38 C100.00,124.65 98.90,121.65 97.55,118.70 C96.09,115.50 95.33,112.45 95.68,111.12 C96.00,109.90 95.48,107.18 94.54,105.08 C92.91,101.46 92.91,101.08 94.55,97.88 C95.50,96.02 97.36,93.21 98.68,91.62 L 98.69 91.61 C98.49,91.88 98.27,92.16 98.03,92.46 C94.62,96.76 94.00,102.62 96.50,107.00 C97.29,108.38 97.95,110.91 97.96,112.63 C97.99,114.82 98.73,116.25 100.41,117.35 C102.01,118.40 103.04,120.29 103.50,123.03 C103.89,125.29 104.46,126.87 104.78,126.55 C105.10,126.23 106.52,128.08 107.93,130.67 C110.58,135.52 113.00,137.37 113.00,134.56 C113.00,133.68 114.12,132.45 115.50,131.82 C117.56,130.88 118.34,131.00 120.00,132.50 C121.12,133.51 122.00,135.58 122.00,137.19 C122.00,138.77 122.78,141.27 123.74,142.73 L 125.49 145.39 L 126.11 140.45 C126.46,137.73 127.28,130.55 127.96,124.50 ZM 226.43 171.43 C228.43,169.43 228.48,164.40 226.50,163.64 C225.55,163.27 225.15,163.66 225.03,165.26 C225.05,164.93 225.05,164.59 225.06,164.26 C225.13,156.79 226.24,150.69 227.50,150.77 C228.05,150.80 228.99,150.43 229.58,149.93 C230.24,149.38 231.41,149.58 232.58,150.44 C234.43,151.80 234.40,151.89 231.83,152.87 C229.73,153.67 229.28,154.36 229.74,156.09 C230.12,157.58 229.70,158.75 228.45,159.66 C226.75,160.90 226.73,161.16 228.18,162.61 C230.53,164.96 233.68,163.51 235.02,159.45 C235.64,157.55 236.50,156.00 236.92,156.00 C237.34,156.00 238.20,154.85 238.85,153.44 C239.52,151.95 239.59,151.14 239.01,151.50 C237.55,152.40 237.83,150.81 239.53,148.56 C240.99,146.63 241.04,146.64 243.74,148.66 C245.94,150.30 246.42,151.37 246.18,154.12 C245.96,156.73 246.49,158.11 248.44,159.95 C250.16,161.56 251.00,163.41 251.00,165.59 C251.00,167.97 251.81,169.50 254.08,171.41 C255.77,172.83 257.57,174.00 258.08,174.00 C258.58,174.00 259.00,176.26 259.00,179.03 C259.00,185.12 262.61,192.87 266.85,195.90 C269.46,197.75 269.81,198.66 270.18,204.45 L 270.59 210.94 L 276.80 216.55 C280.21,219.64 283.00,222.61 283.00,223.15 C283.00,225.64 289.40,233.04 293.72,235.55 C296.35,237.07 301.07,240.69 304.22,243.58 C307.81,246.88 312.05,249.62 315.66,250.97 C322.66,253.59 326.59,257.13 325.22,259.58 C324.20,261.39 325.16,267.27 326.80,269.28 C332.08,275.77 338.43,293.47 337.73,299.73 C337.41,302.56 337.63,304.00 338.40,304.00 C339.03,304.00 340.40,307.88 341.44,312.64 C342.99,319.70 343.14,322.22 342.28,326.39 C342.17,326.91 342.08,327.42 342.01,327.90 C342.27,324.57 341.71,319.06 340.79,319.25 C340.07,319.40 339.34,317.80 338.98,315.27 C338.20,309.88 337.50,309.24 334.93,311.56 L 332.86 313.44 L 334.93 308.18 C337.06,302.77 337.64,298.00 336.16,298.00 C335.70,298.00 334.38,294.51 333.23,290.25 C330.16,278.87 325.96,270.38 321.43,266.40 C320.11,265.24 319.31,264.02 319.65,263.69 C319.98,263.35 319.09,262.54 317.66,261.89 C316.23,261.24 315.26,260.39 315.50,259.99 C315.99,259.21 313.38,258.00 298.50,252.12 C293.00,249.94 286.25,247.26 283.50,246.15 C280.75,245.04 275.35,243.15 271.50,241.95 C261.06,238.69 242.14,229.89 236.85,225.83 C234.29,223.87 231.03,221.97 229.60,221.61 C228.17,221.26 227.00,220.53 227.00,220.01 C227.00,219.09 221.88,216.00 220.35,216.00 C219.94,216.00 221.02,217.46 222.75,219.25 C227.44,224.10 228.00,226.52 225.84,232.44 C222.10,242.68 216.50,248.25 204.70,253.20 C208.89,251.32 212.07,249.39 213.51,247.74 C215.07,245.96 218.02,242.64 220.07,240.38 C223.67,236.40 223.81,235.98 223.77,229.08 C223.73,223.46 223.29,221.36 221.70,219.35 C219.95,217.12 219.59,214.65 218.96,200.25 C218.18,182.58 218.19,182.52 224.05,171.76 C224.48,170.97 224.87,168.52 225.01,165.90 C225.00,166.07 225.00,166.26 225.00,166.45 C225.00,168.31 224.73,170.55 224.39,171.42 C223.62,173.43 224.42,173.44 226.43,171.43 ZM 347.88 356.75 C347.50,358.08 347.11,358.91 346.55,359.40 C346.98,358.79 347.07,357.60 347.13,355.25 C347.46,343.48 346.76,319.87 345.89,313.50 C344.29,301.73 338.84,281.85 335.40,275.25 C332.52,269.71 332.32,268.83 333.64,267.51 C334.95,266.20 335.47,266.19 337.94,267.47 C341.16,269.13 342.00,270.79 342.00,275.46 C342.00,279.45 343.27,280.60 348.50,281.35 C350.70,281.66 354.19,282.21 356.25,282.57 L 360.00 283.22 L 360.00 360.00 L 355.50 360.00 C352.17,360.00 351.00,359.61 351.00,358.50 C351.00,357.67 350.55,357.00 350.00,357.00 C349.45,357.00 348.96,356.21 348.91,355.25 C348.86,354.29 348.40,354.96 347.88,356.75 ZM 186.21 207.99 C191.77,206.55 201.09,201.92 201.72,200.28 C201.99,199.57 202.76,199.00 203.42,199.00 C204.08,199.00 205.94,197.54 207.56,195.75 C209.17,193.96 209.86,193.03 209.11,193.69 C207.52,195.05 205.00,193.21 205.00,190.68 C205.00,189.87 204.32,188.95 203.50,188.64 C201.25,187.78 199.00,188.98 199.00,191.04 C199.00,193.40 196.12,196.26 194.40,195.60 C193.67,195.32 192.80,195.52 192.47,196.05 C192.14,196.58 190.82,196.74 189.53,196.42 C187.77,195.98 187.03,196.32 186.56,197.81 C185.70,200.53 182.25,201.21 179.25,199.25 C175.81,196.99 172.83,196.93 172.26,199.11 C171.89,200.54 171.14,200.78 168.65,200.30 C166.92,199.96 165.21,199.25 164.86,198.71 C164.51,198.18 163.77,198.02 163.22,198.37 C162.66,198.71 161.95,198.32 161.64,197.49 C161.32,196.67 160.15,196.00 159.04,196.00 C156.55,196.00 152.30,192.44 150.38,188.75 C149.59,187.24 148.29,186.00 147.47,186.00 C146.66,186.00 145.99,185.44 145.98,184.75 C145.97,183.92 145.65,184.00 145.00,185.00 C144.47,185.82 144.02,186.05 144.00,185.50 C143.98,184.95 143.59,185.10 143.12,185.84 C142.48,186.86 141.70,186.37 139.93,183.84 C138.65,182.00 136.90,179.82 136.05,179.00 C135.20,178.18 133.64,175.81 132.59,173.75 C130.44,169.52 129.52,169.15 128.04,171.93 C126.00,175.74 127.88,183.37 130.60,182.32 C132.02,181.78 133.38,184.28 134.51,189.49 C135.08,192.12 135.28,192.26 136.17,190.67 C137.09,189.03 137.52,189.21 140.99,192.68 C147.45,199.16 153.56,203.84 157.77,205.52 C165.37,208.57 179.31,209.77 186.21,207.99 ZM 172.00 193.03 C172.00,193.55 173.12,193.88 174.50,193.77 C175.88,193.66 177.00,193.18 177.00,192.71 C177.00,192.25 177.90,192.15 179.00,192.50 C180.15,192.86 181.00,192.68 181.00,192.07 C181.00,191.48 180.44,190.99 179.75,190.98 C178.92,190.97 179.00,190.65 180.00,190.02 C180.82,189.49 183.17,189.33 185.20,189.65 C190.45,190.49 193.67,189.44 194.37,186.67 C194.69,185.38 196.56,182.62 198.52,180.55 C200.48,178.47 201.92,176.25 201.72,175.63 C200.68,172.48 186.00,175.08 186.00,178.41 C186.00,179.92 183.89,181.00 180.92,181.00 C179.86,181.00 179.00,181.45 179.00,182.00 C179.00,183.60 174.27,183.16 173.64,181.50 C173.29,180.58 171.77,180.00 169.73,180.00 C167.90,180.00 165.91,179.51 165.32,178.92 C164.73,178.33 162.28,177.40 159.89,176.86 C157.49,176.32 154.73,175.16 153.76,174.28 C151.59,172.32 150.11,173.45 151.78,175.80 C152.44,176.73 154.34,180.08 156.00,183.23 C158.29,187.59 159.67,189.10 161.76,189.53 C168.23,190.86 172.00,192.14 172.00,193.03 ZM 0.00 180.00 L 0.00 0.00 L 0.02 161.75 C0.03,264.45 0.38,324.05 1.00,325.00 C1.78,326.21 1.97,326.07 1.98,324.25 C1.99,323.01 2.46,322.00 3.02,322.00 C3.58,322.00 4.54,320.76 5.14,319.25 C5.75,317.74 7.26,314.25 8.51,311.50 C9.48,309.37 10.76,305.79 11.72,302.62 C9.90,309.65 8.78,317.50 7.50,329.50 C4.81,354.58 3.80,360.00 1.79,360.00 C0.08,360.00 0.00,352.12 0.00,180.00 ZM 159.57 118.57 C161.59,116.55 161.44,116.26 157.25,114.16 C154.83,112.95 152.21,112.45 149.86,112.74 C147.64,113.02 144.83,112.54 142.69,111.52 C139.37,109.95 139.00,109.95 136.49,111.60 C133.99,113.24 131.40,117.73 132.39,118.72 C132.63,118.96 133.74,118.68 134.85,118.08 C137.67,116.57 148.89,116.81 152.50,118.46 C156.45,120.27 157.85,120.29 159.57,118.57 ZM 205.47 116.08 C211.42,115.23 215.40,114.00 212.17,114.00 C211.52,114.00 211.00,113.55 211.00,113.00 C211.00,112.45 212.23,112.00 213.72,112.00 L 216.44 112.00 L 214.16 109.75 C211.99,107.60 211.82,107.58 210.54,109.31 C209.39,110.85 208.31,111.02 203.23,110.45 C198.54,109.92 196.74,110.12 194.74,111.43 C189.79,114.68 190.97,118.45 196.61,117.42 C197.78,117.21 201.76,116.60 205.47,116.08 ZM 156.65 163.50 C158.63,162.68 163.11,162.00 166.62,162.00 C170.13,162.00 173.00,161.66 173.00,161.24 C173.00,159.38 166.76,157.81 162.20,158.52 C159.61,158.92 155.36,159.32 152.74,159.42 C147.28,159.62 143.32,162.32 146.00,164.02 C148.21,165.42 152.58,165.20 156.65,163.50 ZM 168.97 174.94 C169.89,176.66 171.03,177.00 175.96,177.00 C181.93,177.00 185.00,175.47 185.00,172.50 C185.00,170.72 182.75,170.13 175.84,170.10 C169.32,170.07 167.17,171.58 168.97,174.94 ZM 201.02 167.49 C205.88,164.98 202.53,160.09 195.90,160.03 C193.92,160.01 190.83,159.49 189.04,158.86 C186.76,158.07 185.59,158.05 185.13,158.79 C184.77,159.38 183.63,159.78 182.59,159.68 C181.56,159.58 180.52,160.06 180.27,160.75 C179.95,161.66 181.57,162.03 186.17,162.12 C189.65,162.18 192.83,162.18 193.24,162.12 C194.48,161.93 197.93,165.30 197.39,166.18 C197.11,166.63 195.90,167.01 194.69,167.02 C192.91,167.03 192.78,167.21 194.00,168.00 C196.09,169.35 197.64,169.24 201.02,167.49 ZM 149.45 39.29 C149.81,38.83 150.00,38.37 150.00,37.92 C150.00,33.95 151.80,32.01 154.90,32.63 C156.75,33.00 158.69,32.59 160.39,31.48 C162.39,30.17 164.29,29.89 168.26,30.31 C175.35,31.05 180.16,32.02 182.18,33.10 C183.11,33.59 184.77,34.00 185.87,34.00 C187.85,34.00 208.93,40.82 215.69,43.64 C217.44,44.37 220.48,46.41 222.75,48.35 C216.24,43.25 204.77,38.91 190.09,36.02 C184.42,34.90 179.37,33.73 178.85,33.41 C178.33,33.09 177.25,33.37 176.45,34.04 C174.57,35.60 168.37,34.65 165.92,32.43 C164.41,31.06 163.54,30.97 160.90,31.89 C159.14,32.50 156.43,33.00 154.88,33.00 C152.90,33.00 152.22,33.41 152.59,34.38 C153.09,35.67 151.68,37.54 149.45,39.29 ZM 155.24 127.46 C156.17,127.10 156.49,125.89 156.19,123.85 C155.75,120.83 155.65,120.78 151.00,121.23 C146.25,121.68 138.44,125.98 140.88,126.79 C141.56,127.02 142.91,126.48 143.89,125.60 C146.26,123.46 147.66,123.58 148.29,126.00 C148.81,127.99 152.08,128.67 155.24,127.46 ZM 343.94 353.67 C345.18,350.07 345.67,346.75 345.30,344.49 C344.76,341.11 344.64,341.02 342.88,342.60 C341.18,344.14 340.99,344.15 340.41,342.63 C340.07,341.73 340.08,339.76 340.44,338.25 C341.05,335.74 340.88,335.83 338.52,339.25 C337.09,341.31 335.74,343.00 335.51,343.00 C335.03,343.00 340.53,331.14 341.42,330.24 C341.60,330.06 341.74,329.68 341.85,329.15 C341.70,330.67 341.78,331.71 342.11,331.83 C342.60,332.02 343.01,333.14 343.03,334.33 C343.05,335.52 343.72,337.37 344.53,338.44 C346.56,341.12 346.37,346.62 344.00,353.50 C342.90,356.69 342.00,359.46 342.00,359.66 C342.00,359.46 342.87,356.77 343.94,353.67 ZM 204.00 124.72 C207.92,121.53 204.75,118.24 198.98,119.50 C196.75,119.99 196.00,120.73 196.00,122.41 C196.00,123.65 196.30,124.97 196.67,125.33 C197.75,126.42 202.38,126.03 204.00,124.72 ZM 120.42 148.43 C121.11,152.10 122.29,152.95 123.66,150.75 C125.01,148.59 124.93,146.57 123.44,144.55 C121.31,141.68 119.57,143.91 120.42,148.43 ZM 233.20 73.25 C232.65,71.74 231.87,69.66 231.45,68.63 C230.79,67.01 230.96,66.91 232.72,67.85 C233.83,68.44 235.02,68.65 235.37,68.30 C235.72,67.95 236.00,69.54 236.00,71.83 C236.00,76.60 234.66,77.28 233.20,73.25 ZM 174.75 165.31 C175.71,165.56 176.79,165.82 177.14,165.88 C177.49,165.95 178.97,165.38 180.43,164.62 L 183.09 163.24 L 180.55 162.60 C177.70,161.89 173.00,162.78 173.00,164.04 C173.00,164.49 173.79,165.06 174.75,165.31 ZM 110.44 69.03 C111.37,68.14 112.00,67.06 112.00,66.07 C112.00,65.17 112.90,63.67 114.00,62.73 C115.37,61.56 116.00,59.78 116.00,57.07 C116.00,55.98 116.17,54.98 116.49,54.10 C116.14,55.42 116.00,57.23 116.00,59.62 C116.00,64.25 115.64,66.00 114.67,66.00 C113.95,66.00 112.29,67.12 111.00,68.50 C110.83,68.68 110.64,68.86 110.44,69.03 ZM 158.44 168.10 C159.10,167.04 156.68,165.99 153.67,166.03 C151.55,166.06 151.54,166.10 153.44,167.53 C155.64,169.20 157.62,169.42 158.44,168.10 ZM 118.13 51.57 C119.21,50.57 120.66,50.00 122.35,50.00 C123.40,50.00 126.78,48.72 129.88,47.16 C130.31,46.94 130.76,46.72 131.23,46.51 C128.49,47.94 125.97,49.63 125.62,50.54 C125.24,51.54 124.17,51.78 122.04,51.36 C120.32,51.01 119.05,51.04 118.13,51.57 ZM 193.18 124.33 C192.99,125.32 193.50,126.00 194.43,126.00 C195.35,126.00 196.00,125.15 196.00,123.92 C196.00,121.48 193.66,121.82 193.18,124.33 ZM 212.00 123.95 C211.18,123.39 209.69,122.47 208.70,121.91 C207.09,120.98 207.04,121.08 208.19,122.94 C208.90,124.07 210.39,124.99 211.49,124.98 C213.17,124.97 213.25,124.80 212.00,123.95 ZM 116.72 142.67 C117.42,144.43 117.45,144.43 117.81,142.64 C118.02,141.62 117.70,140.30 117.09,139.69 C115.79,138.39 115.61,139.84 116.72,142.67 ZM 221.00 184.44 C221.00,183.58 220.55,183.16 220.00,183.50 C219.45,183.84 219.00,184.54 219.00,185.06 C219.00,185.58 219.45,186.00 220.00,186.00 C220.55,186.00 221.00,185.30 221.00,184.44 ZM 145.00 126.06 C145.00,126.58 145.45,127.00 146.00,127.00 C146.55,127.00 147.00,126.30 147.00,125.44 C147.00,124.58 146.55,124.16 146.00,124.50 C145.45,124.84 145.00,125.54 145.00,126.06 ZM 137.83 44.00 C138.28,43.88 138.67,43.79 139.00,43.74 C140.85,43.43 142.58,42.99 144.09,42.46 C141.97,43.39 139.78,44.00 137.96,44.00 C137.92,44.00 137.88,44.00 137.83,44.00 ZM 19.38 282.12 C21.60,277.00 23.97,271.84 25.93,268.00 C25.51,268.83 22.69,274.90 19.66,281.50 C19.57,281.71 19.47,281.91 19.38,282.12 ZM 156.93 258.96 C159.98,259.65 164.12,260.06 168.53,260.20 C163.48,260.14 160.46,259.84 156.93,258.96 ZM 229.04 53.49 C229.54,53.85 229.98,54.15 230.33,54.38 C231.18,54.91 231.94,55.59 232.64,56.46 C232.22,55.95 231.78,55.53 231.32,55.22 C230.82,54.86 230.01,54.25 229.04,53.49 ZM 102.31 74.35 C103.38,72.35 104.74,71.00 106.12,71.00 C106.38,71.00 106.65,70.97 106.92,70.92 C106.69,70.97 106.47,71.00 106.27,71.00 C104.83,71.00 103.41,72.35 102.31,74.35 ZM 38.61 259.98 C39.04,259.86 39.50,259.75 39.94,259.66 C40.01,259.65 40.08,259.63 40.15,259.62 C39.46,259.81 38.93,259.93 38.61,259.98 Z" fill="rgb(109,109,109)"/>
<path d="M 149.45 39.29 C147.93,40.48 146.04,41.61 144.09,42.46 C142.58,42.99 140.85,43.43 139.00,43.74 C138.67,43.79 138.28,43.88 137.83,44.00 C136.48,44.07 133.76,45.18 131.23,46.51 C130.76,46.72 130.31,46.94 129.88,47.16 C126.78,48.72 123.40,50.00 122.35,50.00 C120.66,50.00 119.21,50.57 118.13,51.57 C117.35,52.02 116.82,52.83 116.49,54.10 C116.17,54.98 116.00,55.98 116.00,57.07 C116.00,59.78 115.37,61.56 114.00,62.73 C112.90,63.67 112.00,65.17 112.00,66.07 C112.00,67.06 111.37,68.14 110.44,69.03 C109.38,69.96 108.01,70.69 106.92,70.92 C106.65,70.97 106.38,71.00 106.12,71.00 C104.74,71.00 103.38,72.35 102.31,74.35 C100.81,77.09 99.93,81.05 100.44,84.43 C100.94,87.79 100.74,88.92 98.69,91.61 L 98.68 91.62 C97.36,93.21 95.50,96.02 94.55,97.88 C92.91,101.08 92.91,101.46 94.54,105.08 C95.48,107.18 96.00,109.90 95.68,111.12 C95.33,112.45 96.09,115.50 97.55,118.70 C98.90,121.65 100.00,124.65 100.00,125.38 C100.00,129.69 102.48,133.03 108.64,137.01 C112.22,139.33 115.36,141.96 115.63,142.86 C115.89,143.76 116.71,145.70 117.46,147.18 C118.68,149.57 118.61,150.04 116.83,151.66 C115.22,153.11 114.95,154.23 115.46,157.48 C117.46,170.43 117.43,170.94 113.82,183.00 C113.24,184.93 111.44,187.91 109.81,189.63 C106.79,192.82 105.16,197.25 104.30,204.63 C103.99,207.32 102.81,209.86 100.91,211.94 C99.31,213.69 98.00,215.69 98.00,216.39 C98.00,217.08 96.88,218.71 95.50,220.00 C94.12,221.29 93.00,222.71 93.00,223.15 C93.00,224.56 85.72,235.40 83.57,237.20 C82.43,238.16 80.91,238.95 80.19,238.97 C79.47,238.99 79.16,239.45 79.50,240.00 C79.84,240.55 79.25,241.00 78.20,241.00 C77.14,241.00 75.46,242.10 74.45,243.44 C73.44,244.78 72.30,245.69 71.92,245.45 C71.24,245.03 65.21,247.62 60.00,250.56 C58.62,251.34 56.49,251.98 55.25,251.99 C54.01,251.99 53.00,252.45 53.00,253.00 C53.00,253.55 52.29,254.00 51.43,254.00 C50.57,254.00 48.40,255.12 46.60,256.49 C45.17,257.58 42.97,258.71 41.19,259.31 C40.81,259.43 40.47,259.53 40.15,259.62 C40.08,259.63 40.01,259.65 39.94,259.66 C39.50,259.75 39.04,259.86 38.61,259.98 C38.51,259.99 38.43,260.00 38.37,260.00 C37.57,260.00 36.37,260.48 35.71,261.08 C35.04,261.67 32.74,263.13 30.60,264.33 C28.45,265.52 26.35,267.17 25.93,268.00 C23.97,271.84 21.60,277.00 19.38,282.12 C15.74,290.09 13.43,295.99 11.72,302.62 C10.76,305.79 9.48,309.37 8.51,311.50 C7.26,314.25 5.75,317.74 5.14,319.25 C4.54,320.76 3.58,322.00 3.02,322.00 C2.46,322.00 1.99,323.01 1.98,324.25 C1.97,326.07 1.78,326.21 1.00,325.00 C0.38,324.05 0.03,264.45 0.02,161.75 L 0.00 0.00 L 360.00 0.00 L 360.00 283.22 L 356.25 282.57 C354.19,282.21 350.70,281.66 348.50,281.35 C343.27,280.60 342.00,279.45 342.00,275.46 C342.00,270.79 341.16,269.13 337.94,267.47 C335.47,266.19 334.95,266.20 333.64,267.51 C332.32,268.83 332.52,269.71 335.40,275.25 C337.66,279.60 340.80,289.71 343.14,299.46 C342.06,295.40 340.72,291.84 339.07,288.50 C335.74,281.76 335.25,281.64 337.56,288.12 C338.41,290.53 339.73,295.42 340.48,299.00 C341.23,302.58 342.27,307.12 342.79,309.11 C343.30,311.09 343.61,315.59 343.47,319.11 C343.33,322.66 343.67,325.78 344.24,326.14 C344.83,326.51 345.38,332.63 345.55,340.62 C345.32,339.77 344.98,339.03 344.53,338.44 C343.72,337.37 343.05,335.52 343.03,334.33 C343.01,333.14 342.60,332.02 342.11,331.83 C341.78,331.71 341.70,330.67 341.85,329.15 C341.92,328.79 341.97,328.37 342.01,327.90 C342.08,327.42 342.17,326.91 342.28,326.39 C343.14,322.22 342.99,319.70 341.44,312.64 C340.40,307.88 339.03,304.00 338.40,304.00 C337.63,304.00 337.41,302.56 337.73,299.73 C338.43,293.47 332.08,275.77 326.80,269.28 C325.16,267.27 324.20,261.39 325.22,259.58 C326.59,257.13 322.66,253.59 315.66,250.97 C312.05,249.62 307.81,246.88 304.22,243.58 C301.07,240.69 296.35,237.07 293.72,235.55 C289.40,233.04 283.00,225.64 283.00,223.15 C283.00,222.61 280.21,219.64 276.80,216.55 L 270.59 210.94 L 270.18 204.45 C269.81,198.66 269.46,197.75 266.85,195.90 C262.61,192.87 259.00,185.12 259.00,179.03 C259.00,176.26 258.58,174.00 258.08,174.00 C257.57,174.00 255.77,172.83 254.08,171.41 C251.81,169.50 251.00,167.97 251.00,165.59 C251.00,163.41 250.16,161.56 248.44,159.95 C246.49,158.11 245.96,156.73 246.18,154.12 C246.42,151.37 245.94,150.30 243.74,148.66 C241.04,146.64 240.99,146.63 239.53,148.56 C237.83,150.81 237.55,152.40 239.01,151.50 C239.59,151.14 239.52,151.95 238.85,153.44 C238.20,154.85 237.34,156.00 236.92,156.00 C236.50,156.00 235.64,157.55 235.02,159.45 C234.74,160.29 234.38,161.02 233.97,161.63 C233.99,161.51 234.00,161.39 234.00,161.25 C234.00,160.29 234.90,157.13 236.00,154.24 C238.15,148.59 238.65,145.45 237.00,148.00 C236.19,149.25 236.01,149.17 235.90,147.50 C235.81,146.23 235.53,146.60 235.12,148.49 C234.89,149.58 234.39,150.55 233.69,151.34 C233.48,151.11 233.11,150.83 232.58,150.44 C231.41,149.58 230.24,149.38 229.58,149.93 C228.99,150.43 228.05,150.80 227.50,150.77 C226.91,150.73 226.36,152.04 225.92,154.21 C226.16,151.28 226.41,148.38 226.61,146.27 C227.06,141.43 226.68,134.87 225.84,129.35 C226.51,133.36 227.00,137.24 227.00,139.38 C227.00,142.85 229.13,145.66 230.92,144.55 C233.36,143.04 235.18,130.19 232.75,131.61 C232.06,132.01 232.36,131.37 233.40,130.17 C236.04,127.17 236.66,127.44 236.20,131.38 C235.79,134.94 237.12,136.66 239.24,135.30 C240.96,134.20 241.05,129.68 239.37,128.70 C237.53,127.63 237.61,125.64 239.47,126.35 C240.28,126.66 241.23,126.43 241.59,125.85 C242.03,125.14 242.54,125.24 243.11,126.14 C243.72,127.11 243.97,126.77 243.98,124.97 C244.00,121.93 246.57,118.00 248.54,118.00 C250.35,118.00 251.38,113.96 250.66,109.75 C247.58,91.93 246.47,87.88 244.17,86.05 C241.29,83.77 239.44,79.42 237.74,70.99 C236.65,65.57 235.57,61.79 234.27,59.12 C233.76,58.03 233.21,57.15 232.64,56.46 L 232.64 56.45 C231.94,55.58 231.18,54.91 230.33,54.38 C229.98,54.15 229.54,53.85 229.04,53.49 C227.43,52.22 225.38,50.55 223.56,49.00 C223.30,48.78 223.03,48.56 222.75,48.35 C220.48,46.41 217.44,44.37 215.69,43.64 C208.93,40.82 187.85,34.00 185.87,34.00 C184.77,34.00 183.11,33.59 182.18,33.10 C180.16,32.02 175.35,31.05 168.26,30.31 C164.29,29.89 162.39,30.17 160.39,31.48 C158.69,32.59 156.75,33.00 154.90,32.63 C151.80,32.01 150.00,33.95 150.00,37.92 C150.00,38.37 149.81,38.83 149.45,39.29 ZM 214.17 231.47 C215.07,233.44 215.99,234.02 217.83,233.80 C219.19,233.63 220.61,232.82 220.99,232.00 C221.38,231.18 222.21,229.49 222.84,228.26 C223.23,227.52 223.51,226.82 223.69,226.15 C223.74,227.01 223.76,227.98 223.77,229.08 C223.81,235.98 223.67,236.40 220.07,240.38 C218.02,242.64 215.07,245.96 213.51,247.74 C212.07,249.39 208.89,251.32 204.70,253.20 C204.05,253.47 203.38,253.74 202.69,254.01 C190.27,258.88 183.78,260.17 171.63,260.21 C170.52,260.22 169.49,260.21 168.53,260.20 L 168.53 260.20 C164.12,260.06 159.98,259.65 156.93,258.96 C156.18,258.77 155.40,258.55 154.58,258.31 L 154.58 258.31 C148.56,256.42 143.20,253.56 141.25,251.16 C139.59,249.12 139.66,243.26 141.47,233.50 C142.28,229.10 143.30,222.81 143.73,219.52 C144.36,214.62 144.93,213.33 146.89,212.36 C150.14,210.75 151.50,211.47 154.37,216.34 C158.36,223.11 161.79,225.66 167.80,226.33 C174.10,227.03 175.78,225.19 171.75,222.02 C168.85,219.74 166.52,214.69 167.35,212.52 C168.14,210.46 180.68,210.44 183.38,212.49 C184.50,213.33 185.73,216.27 186.42,219.71 C187.33,224.26 187.98,225.50 189.43,225.50 C190.45,225.50 191.78,224.69 192.39,223.71 C193.29,222.25 193.07,221.59 191.16,220.14 C189.01,218.50 188.91,218.04 189.93,214.27 C191.25,209.37 193.41,206.57 197.69,204.24 C201.75,202.03 212.56,192.41 215.30,188.57 C216.45,186.96 216.90,185.95 216.29,186.32 C215.52,186.79 215.36,185.71 215.76,182.75 C216.27,178.87 216.18,178.62 214.66,179.87 C212.39,181.75 212.47,179.54 214.75,177.22 C217.35,174.58 217.10,169.87 214.23,167.61 C212.76,166.46 212.02,165.03 212.31,163.93 C213.48,159.44 205.15,154.84 199.65,156.94 C196.04,158.32 188.43,156.40 190.00,154.50 C192.46,151.53 185.24,150.97 182.56,153.93 C180.88,155.79 180.90,155.84 183.06,155.27 C184.62,154.87 185.09,155.04 184.60,155.84 C183.59,157.47 181.86,157.29 176.86,155.02 C171.62,152.64 162.00,152.24 162.00,154.39 C162.00,157.06 154.61,158.02 151.07,155.81 C149.59,154.89 148.29,154.92 145.17,155.94 C142.98,156.67 140.05,156.98 138.67,156.63 C134.90,155.69 131.97,150.17 131.88,143.85 C131.68,128.67 132.45,125.24 135.00,130.00 C135.70,131.31 137.09,132.00 139.02,132.00 C140.64,132.00 143.94,132.53 146.34,133.17 C149.98,134.14 151.38,134.06 154.81,132.69 C157.62,131.57 159.12,131.39 159.58,132.12 C159.94,132.71 161.58,133.00 163.21,132.76 C165.12,132.47 166.37,132.80 166.71,133.68 C167.30,135.22 165.33,140.72 163.34,143.08 C161.65,145.07 161.64,146.00 163.31,146.00 C166.12,146.00 168.23,143.14 170.48,136.28 C173.49,127.06 172.80,123.56 166.81,117.77 C161.09,112.24 158.68,111.10 152.01,110.77 C147.83,110.56 146.44,110.11 146.20,108.84 C146.03,107.93 146.48,106.72 147.19,106.15 C154.03,100.74 156.43,98.01 155.50,96.69 C154.95,95.92 153.69,94.14 152.70,92.73 C151.04,90.40 151.02,89.89 152.40,86.59 C153.22,84.62 154.48,82.94 155.20,82.86 C168.48,81.40 174.62,81.24 178.19,82.24 C181.19,83.09 182.59,82.95 185.61,81.52 C189.26,79.78 189.51,79.80 199.14,82.49 C204.53,84.00 209.35,85.74 209.85,86.36 C210.35,86.99 210.99,89.07 211.28,91.00 C211.56,92.93 212.12,95.51 212.51,96.75 C213.06,98.45 212.84,99.00 211.64,99.00 C210.75,99.00 209.75,97.85 209.39,96.43 C208.57,93.15 204.91,91.74 199.37,92.57 C193.52,93.45 191.78,95.59 194.88,98.10 C196.15,99.13 198.93,100.44 201.05,101.01 C205.58,102.23 206.41,103.24 205.58,106.56 C205.04,108.68 204.39,109.00 200.60,109.00 C194.39,109.00 190.90,110.79 185.62,116.66 C180.60,122.24 179.94,125.06 182.53,130.05 C183.41,131.75 183.78,132.57 184.38,132.79 C184.91,132.99 185.62,132.72 187.02,132.18 C187.15,132.13 187.29,132.08 187.43,132.02 C190.13,131.00 190.88,128.52 188.75,127.66 C188.06,127.38 188.74,127.12 190.25,127.08 C191.76,127.04 193.00,127.45 193.00,128.00 C193.00,128.55 193.48,129.00 194.06,129.00 C194.64,129.00 194.85,128.56 194.52,128.03 C194.17,127.46 195.39,127.11 197.46,127.19 C199.41,127.26 201.00,127.70 201.00,128.16 C201.00,128.62 200.55,129.00 200.00,129.00 C199.45,129.00 199.00,129.45 199.00,130.00 C199.00,131.82 204.68,131.04 210.38,128.43 C216.38,125.68 217.52,123.43 214.00,121.23 C211.15,119.45 211.33,115.80 214.25,116.04 C219.93,116.50 220.65,114.33 216.31,109.80 C214.84,108.26 214.19,107.00 214.87,107.00 C215.56,107.00 215.88,106.62 215.59,106.14 C215.30,105.67 216.16,105.50 217.51,105.76 C219.40,106.12 220.09,107.04 220.59,109.86 C220.94,111.86 221.81,114.44 222.53,115.59 C223.22,116.69 224.26,120.91 225.17,125.61 C224.51,122.53 223.71,120.13 222.86,119.07 C221.73,117.68 220.21,116.97 218.78,117.18 C216.96,117.44 216.54,118.07 216.70,120.36 C216.81,121.93 217.53,123.73 218.30,124.36 C219.06,124.98 220.66,126.92 221.85,128.66 C224.33,132.29 224.01,133.77 219.59,139.33 L 216.54 143.16 L 214.27 140.52 C213.02,139.07 212.00,137.24 212.00,136.44 C212.00,135.65 211.07,135.00 209.94,135.00 C208.81,135.00 208.10,135.36 208.38,135.80 C209.34,137.35 207.43,138.73 201.50,140.76 C194.28,143.23 193.36,145.45 197.98,149.33 C201.69,152.45 207.22,153.67 210.62,152.13 C215.00,150.13 215.97,150.61 214.93,154.24 C213.50,159.24 213.81,161.74 216.13,163.90 C217.67,165.35 218.11,166.65 217.72,168.68 C217.43,170.22 217.59,172.24 218.09,173.17 C218.64,174.20 218.63,175.85 218.06,177.33 C217.55,178.69 217.42,180.09 217.79,180.45 C218.15,180.82 219.06,180.30 219.80,179.31 C220.27,178.69 220.70,178.03 221.11,177.34 C219.01,181.67 218.50,184.41 218.62,190.95 C218.54,190.06 218.47,189.41 218.40,189.09 C217.90,186.78 217.66,186.90 212.49,192.01 C207.40,197.04 207.19,197.43 208.86,198.92 C210.30,200.20 210.68,202.40 210.89,210.50 C211.15,220.84 212.11,226.94 214.17,231.47 ZM 172.00 193.03 C172.00,192.14 168.23,190.86 161.76,189.53 C159.67,189.10 158.29,187.59 156.00,183.23 C154.34,180.08 152.44,176.73 151.78,175.80 C150.11,173.45 151.59,172.32 153.76,174.28 C154.73,175.16 157.49,176.32 159.89,176.86 C162.28,177.40 164.73,178.33 165.32,178.92 C165.91,179.51 167.90,180.00 169.73,180.00 C171.77,180.00 173.29,180.58 173.64,181.50 C174.27,183.16 179.00,183.60 179.00,182.00 C179.00,181.45 179.86,181.00 180.92,181.00 C183.89,181.00 186.00,179.92 186.00,178.41 C186.00,175.08 200.68,172.48 201.72,175.63 C201.92,176.25 200.48,178.47 198.52,180.55 C196.56,182.62 194.69,185.38 194.37,186.67 C193.67,189.44 190.45,190.49 185.20,189.65 C183.17,189.33 180.82,189.49 180.00,190.02 C179.00,190.65 178.92,190.97 179.75,190.98 C180.44,190.99 181.00,191.48 181.00,192.07 C181.00,192.68 180.15,192.86 179.00,192.50 C177.90,192.15 177.00,192.25 177.00,192.71 C177.00,193.18 175.88,193.66 174.50,193.77 C173.12,193.88 172.00,193.55 172.00,193.03 ZM 172.50 117.27 C179.01,118.20 179.97,117.96 183.44,114.50 C186.04,111.89 188.51,110.62 193.07,109.56 C196.44,108.77 199.45,107.89 199.74,107.59 C200.79,106.55 197.90,104.21 194.72,103.52 C191.09,102.72 190.06,102.70 170.14,103.04 C156.98,103.26 155.57,103.47 153.22,105.48 C149.42,108.76 150.77,111.00 156.53,111.00 C161.34,111.00 164.15,112.03 167.50,115.04 C168.60,116.03 170.85,117.03 172.50,117.27 ZM 176.00 152.07 C177.46,152.45 179.41,152.16 180.70,151.37 C182.17,150.47 184.39,150.23 187.45,150.65 C191.22,151.17 192.00,151.00 192.00,149.66 C192.00,148.69 190.72,147.73 188.75,147.22 C186.38,146.60 185.47,145.78 185.39,144.17 C185.32,142.95 184.54,141.14 183.64,140.15 C182.74,139.16 182.00,136.94 182.00,135.22 C182.00,131.78 180.16,127.00 178.84,127.00 C178.38,127.00 178.00,126.10 178.00,125.00 C178.00,121.90 175.31,122.61 175.15,125.75 C175.07,127.26 174.93,129.85 174.85,131.50 C174.77,133.15 175.31,135.95 176.06,137.72 C177.30,140.67 177.23,141.20 175.15,144.02 C172.30,147.87 172.65,151.20 176.00,152.07 ZM 140.75 151.92 C145.21,154.52 155.65,151.73 158.28,147.25 C159.91,144.46 159.93,144.07 158.47,142.61 C157.26,141.40 154.95,141.04 148.92,141.10 C142.28,141.17 140.81,141.49 139.98,143.03 C138.40,146.00 138.81,150.79 140.75,151.92 ZM 168.97 174.94 C167.17,171.58 169.32,170.07 175.84,170.10 C182.75,170.13 185.00,170.72 185.00,172.50 C185.00,175.47 181.93,177.00 175.96,177.00 C171.03,177.00 169.89,176.66 168.97,174.94 ZM 162.67 258.33 C163.83,259.49 168.81,259.05 169.27,257.75 C170.22,255.00 160.06,239.61 158.39,241.28 C158.02,241.65 158.68,244.60 159.86,247.83 C161.04,251.06 162.00,254.60 162.00,255.69 C162.00,256.78 162.30,257.97 162.67,258.33 ZM 171.56 236.06 C173.50,238.21 176.14,238.53 179.07,236.96 C183.27,234.71 180.76,232.00 174.48,232.00 C170.33,232.00 169.25,233.51 171.56,236.06 ZM 192.46 241.25 C191.64,244.57 192.59,244.73 195.69,241.83 C197.99,239.66 198.96,234.00 197.02,234.00 C195.72,234.00 193.30,237.85 192.46,241.25 ZM 342.00 359.66 L 342.00 359.66 C342.00,359.46 342.90,356.69 344.00,353.50 C344.84,351.05 345.41,348.78 345.70,346.75 C345.82,351.44 345.95,354.80 346.01,355.00 C346.10,355.27 346.51,354.38 346.93,353.00 C347.08,352.51 347.17,350.95 347.21,348.68 C347.21,351.10 347.19,353.33 347.13,355.25 C347.07,357.60 346.98,358.79 346.55,359.40 C346.04,359.84 345.39,360.00 344.47,360.00 C343.11,360.00 342.00,359.85 342.00,359.66 ZM 120.42 148.43 C119.57,143.91 121.31,141.68 123.44,144.55 C124.93,146.57 125.01,148.59 123.66,150.75 C122.29,152.95 121.11,152.10 120.42,148.43 ZM 174.75 165.31 C173.79,165.06 173.00,164.49 173.00,164.04 C173.00,162.78 177.70,161.89 180.55,162.60 L 183.09 163.24 L 180.43 164.62 C178.97,165.38 177.49,165.95 177.14,165.88 C176.79,165.82 175.71,165.56 174.75,165.31 ZM 172.04 217.54 C173.50,219.31 175.19,219.41 176.78,217.82 C178.27,216.33 176.55,214.00 173.94,214.00 C171.49,214.00 170.55,215.76 172.04,217.54 ZM 231.00 160.50 L 228.65 163.00 L 231.33 163.00 C232.01,163.00 232.56,162.93 232.97,162.78 C231.50,164.06 229.68,164.11 228.18,162.61 C226.73,161.16 226.75,160.90 228.45,159.66 C229.70,158.75 230.12,157.58 229.74,156.09 C229.61,155.62 229.55,155.22 229.58,154.88 C229.62,155.20 229.78,155.58 230.03,156.06 C230.60,157.13 231.58,158.00 232.21,158.00 C232.84,158.00 232.29,159.12 231.00,160.50 ZM 188.65 254.53 C188.96,255.34 189.59,256.00 190.05,256.00 C191.50,256.00 192.27,253.87 191.20,252.80 C189.82,251.42 187.95,252.69 188.65,254.53 ZM 116.72 142.67 C115.61,139.84 115.79,138.39 117.09,139.69 C117.70,140.30 118.02,141.62 117.81,142.64 C117.45,144.43 117.42,144.43 116.72,142.67 ZM 145.00 126.06 C145.00,125.54 145.45,124.84 146.00,124.50 C146.55,124.16 147.00,124.58 147.00,125.44 C147.00,126.30 146.55,127.00 146.00,127.00 C145.45,127.00 145.00,126.58 145.00,126.06 ZM 234.00 156.00 C234.00,156.55 233.55,157.00 233.00,157.00 C232.45,157.00 232.00,156.55 232.00,156.00 C232.00,155.45 232.45,155.00 233.00,155.00 C233.55,155.00 234.00,155.45 234.00,156.00 ZM 222.36 174.89 C223.64,172.01 224.55,168.61 225.05,164.75 C225.05,164.92 225.04,165.09 225.03,165.26 C225.02,165.46 225.01,165.67 225.01,165.90 C224.87,168.52 224.48,170.97 224.05,171.76 C223.42,172.92 222.86,173.95 222.36,174.89 ZM 346.93 331.20 C346.50,320.50 345.74,312.23 344.47,305.40 C345.07,308.32 345.56,311.08 345.89,313.50 C346.31,316.53 346.68,323.48 346.93,331.20 ZM 219.39 208.76 C219.82,215.34 220.30,217.38 221.44,219.00 C220.07,217.10 219.65,215.29 219.39,208.76 Z" fill="rgb(135,135,135)"/>
<path d="M 346.01 355.00 C345.92,354.73 345.72,348.26 345.55,340.64 C345.38,332.64 344.83,326.51 344.24,326.14 C343.67,325.78 343.33,322.66 343.47,319.11 C343.61,315.59 343.30,311.09 342.79,309.11 C342.27,307.12 341.23,302.58 340.48,299.00 C339.73,295.42 338.41,290.53 337.56,288.12 C335.25,281.64 335.74,281.76 339.07,288.50 C343.95,298.39 346.10,310.10 346.94,331.50 C347.35,341.95 347.34,351.62 346.93,353.00 C346.51,354.38 346.10,355.27 346.01,355.00 ZM 162.67 258.33 C162.30,257.97 162.00,256.78 162.00,255.69 C162.00,254.60 161.04,251.06 159.86,247.83 C158.68,244.60 158.02,241.65 158.39,241.28 C160.06,239.61 170.22,255.00 169.27,257.75 C168.81,259.05 163.83,259.49 162.67,258.33 ZM 188.65 254.53 C187.95,252.69 189.82,251.42 191.20,252.80 C192.27,253.87 191.50,256.00 190.05,256.00 C189.59,256.00 188.96,255.34 188.65,254.53 ZM 192.46 241.25 C193.30,237.85 195.72,234.00 197.02,234.00 C198.96,234.00 197.99,239.66 195.69,241.83 C192.59,244.73 191.64,244.57 192.46,241.25 ZM 171.56 236.06 C169.25,233.51 170.33,232.00 174.48,232.00 C180.76,232.00 183.27,234.71 179.07,236.96 C176.14,238.53 173.50,238.21 171.56,236.06 ZM 214.17 231.47 C212.11,226.94 211.15,220.84 210.89,210.50 C210.68,202.40 210.30,200.20 208.86,198.92 C207.19,197.43 207.40,197.04 212.49,192.01 C217.66,186.90 217.90,186.78 218.40,189.09 C218.68,190.42 219.06,197.16 219.25,204.07 C219.54,215.24 219.83,216.96 221.79,219.46 C224.27,222.61 224.55,224.97 222.84,228.26 C222.21,229.49 221.38,231.18 220.99,232.00 C220.61,232.82 219.19,233.63 217.83,233.80 C215.99,234.02 215.07,233.44 214.17,231.47 ZM 172.04 217.54 C170.55,215.76 171.49,214.00 173.94,214.00 C176.55,214.00 178.27,216.33 176.78,217.82 C175.19,219.41 173.50,219.31 172.04,217.54 ZM 217.79 180.45 C217.42,180.09 217.55,178.69 218.06,177.33 C218.63,175.85 218.64,174.20 218.09,173.17 C217.59,172.24 217.43,170.22 217.72,168.68 C218.11,166.65 217.67,165.35 216.13,163.90 C213.81,161.74 213.50,159.24 214.93,154.24 C215.97,150.61 215.00,150.13 210.62,152.13 C207.22,153.67 201.69,152.45 197.98,149.33 C193.36,145.45 194.28,143.23 201.50,140.76 C207.43,138.73 209.34,137.35 208.38,135.80 C208.10,135.36 208.81,135.00 209.94,135.00 C211.07,135.00 212.00,135.65 212.00,136.44 C212.00,137.24 213.02,139.07 214.27,140.52 L 216.54 143.16 L 219.59 139.33 C224.01,133.77 224.33,132.29 221.85,128.66 C220.66,126.92 219.06,124.98 218.30,124.36 C217.53,123.73 216.81,121.93 216.70,120.36 C216.54,118.07 216.96,117.44 218.78,117.18 C220.21,116.97 221.73,117.68 222.86,119.07 C225.39,122.20 227.46,137.22 226.61,146.27 C226.23,150.25 225.68,157.10 225.37,161.50 C224.85,169.05 222.95,175.13 219.80,179.31 C219.06,180.30 218.15,180.82 217.79,180.45 ZM 231.00 160.50 C232.29,159.12 232.84,158.00 232.21,158.00 C231.58,158.00 230.60,157.13 230.03,156.06 C229.16,154.43 229.43,153.90 231.74,152.80 C233.49,151.96 234.72,150.40 235.12,148.49 C235.53,146.60 235.81,146.23 235.90,147.50 C236.01,149.17 236.19,149.25 237.00,148.00 C238.65,145.45 238.15,148.59 236.00,154.24 C234.90,157.13 234.00,160.29 234.00,161.25 C234.00,162.48 233.21,163.00 231.33,163.00 L 228.65 163.00 L 231.00 160.50 ZM 234.00 156.00 C234.00,155.45 233.55,155.00 233.00,155.00 C232.45,155.00 232.00,155.45 232.00,156.00 C232.00,156.55 232.45,157.00 233.00,157.00 C233.55,157.00 234.00,156.55 234.00,156.00 ZM 140.75 151.92 C138.81,150.79 138.40,146.00 139.98,143.03 C140.81,141.49 142.28,141.17 148.92,141.10 C154.95,141.04 157.26,141.40 158.47,142.61 C159.93,144.07 159.91,144.46 158.28,147.25 C155.65,151.73 145.21,154.52 140.75,151.92 ZM 176.00 152.07 C172.65,151.20 172.30,147.87 175.15,144.02 C177.23,141.20 177.30,140.67 176.06,137.72 C175.31,135.95 174.77,133.15 174.85,131.50 C174.93,129.85 175.07,127.26 175.15,125.75 C175.31,122.61 178.00,121.90 178.00,125.00 C178.00,126.10 178.38,127.00 178.84,127.00 C180.16,127.00 182.00,131.78 182.00,135.22 C182.00,136.94 182.74,139.16 183.64,140.15 C184.54,141.14 185.32,142.95 185.39,144.17 C185.47,145.78 186.38,146.60 188.75,147.22 C190.72,147.73 192.00,148.69 192.00,149.66 C192.00,151.00 191.22,151.17 187.45,150.65 C184.39,150.23 182.17,150.47 180.70,151.37 C179.41,152.16 177.46,152.45 176.00,152.07 ZM 193.18 124.33 C193.66,121.82 196.00,121.48 196.00,123.92 C196.00,125.15 195.35,126.00 194.43,126.00 C193.50,126.00 192.99,125.32 193.18,124.33 ZM 172.50 117.27 C170.85,117.03 168.60,116.03 167.50,115.04 C164.15,112.03 161.34,111.00 156.53,111.00 C150.77,111.00 149.42,108.76 153.22,105.48 C155.57,103.47 156.98,103.26 170.14,103.04 C190.06,102.70 191.09,102.72 194.72,103.52 C197.90,104.21 200.79,106.55 199.74,107.59 C199.45,107.89 196.44,108.77 193.07,109.56 C188.51,110.62 186.04,111.89 183.44,114.50 C179.97,117.96 179.01,118.20 172.50,117.27 Z" fill="rgb(166,166,166)"/>
</g>
</svg>